<svg width="94" height="15" viewBox="0 0 94 15" fill="none" xmlns="http://www.w3.org/2000/svg">
<path d="M0.519289 6.044C0.519289 5.07333 0.719956 4.21 1.12129 3.454C1.53196 2.68867 2.11062 2.096 2.85729 1.676C3.60396 1.24667 4.46262 1.032 5.43329 1.032C6.66529 1.032 7.70129 1.36333 8.54129 2.026C9.38129 2.67933 9.92262 3.57067 10.1653 4.7H7.21129C7.03396 4.32667 6.78662 4.042 6.46929 3.846C6.16129 3.65 5.80196 3.552 5.39129 3.552C4.75662 3.552 4.24796 3.78067 3.86529 4.238C3.49196 4.686 3.30529 5.288 3.30529 6.044C3.30529 6.80933 3.49196 7.42067 3.86529 7.878C4.24796 8.326 4.75662 8.55 5.39129 8.55C5.80196 8.55 6.16129 8.452 6.46929 8.256C6.78662 8.06 7.03396 7.77533 7.21129 7.402H10.1653C9.92262 8.53133 9.38129 9.42733 8.54129 10.09C7.70129 10.7433 6.66529 11.07 5.43329 11.07C4.46262 11.07 3.60396 10.86 2.85729 10.44C2.11062 10.0107 1.53196 9.418 1.12129 8.662C0.719956 7.89667 0.519289 7.024 0.519289 6.044ZM11.0167 7.066C11.0167 6.254 11.1613 5.54467 11.4507 4.938C11.7493 4.33133 12.1507 3.86467 12.6547 3.538C13.168 3.21133 13.7373 3.048 14.3627 3.048C14.904 3.048 15.3707 3.15533 15.7627 3.37C16.1547 3.58467 16.458 3.874 16.6727 4.238V3.146H19.4167V11H16.6727V9.908C16.458 10.272 16.15 10.5613 15.7487 10.776C15.3567 10.9907 14.8947 11.098 14.3627 11.098C13.7373 11.098 13.168 10.9347 12.6547 10.608C12.1507 10.2813 11.7493 9.81467 11.4507 9.208C11.1613 8.592 11.0167 7.878 11.0167 7.066ZM16.6727 7.066C16.6727 6.562 16.5327 6.16533 16.2527 5.876C15.982 5.58667 15.646 5.442 15.2447 5.442C14.834 5.442 14.4933 5.58667 14.2227 5.876C13.952 6.156 13.8167 6.55267 13.8167 7.066C13.8167 7.57 13.952 7.97133 14.2227 8.27C14.4933 8.55933 14.834 8.704 15.2447 8.704C15.646 8.704 15.982 8.55933 16.2527 8.27C16.5327 7.98067 16.6727 7.57933 16.6727 7.066ZM23.7243 4.532C24.0323 4.084 24.4056 3.72933 24.8443 3.468C25.283 3.20667 25.7543 3.076 26.2583 3.076V6.002H25.4883C24.891 6.002 24.4476 6.11867 24.1583 6.352C23.869 6.58533 23.7243 6.99133 23.7243 7.57V11H20.9803V3.146H23.7243V4.532ZM30.4659 7.164C30.4659 6.38 30.6246 5.694 30.9419 5.106C31.2593 4.50867 31.6933 4.05133 32.2439 3.734C32.8039 3.40733 33.4339 3.244 34.1339 3.244C34.8059 3.244 35.4126 3.40733 35.9539 3.734C36.4953 4.06067 36.8919 4.48533 37.1439 5.008V0.64H38.1239V11H37.1439V9.292C36.9106 9.824 36.5279 10.2627 35.9959 10.608C35.4639 10.944 34.8386 11.112 34.1199 11.112C33.4199 11.112 32.7899 10.9487 32.2299 10.622C31.6793 10.2953 31.2453 9.83333 30.9279 9.236C30.6199 8.63867 30.4659 7.948 30.4659 7.164ZM37.1439 7.178C37.1439 6.562 37.0179 6.02067 36.7659 5.554C36.5139 5.08733 36.1686 4.728 35.7299 4.476C35.3006 4.224 34.8246 4.098 34.3019 4.098C33.7606 4.098 33.2753 4.21933 32.8459 4.462C32.4166 4.70467 32.0759 5.05933 31.8239 5.526C31.5813 5.98333 31.4599 6.52933 31.4599 7.164C31.4599 7.78933 31.5813 8.34 31.8239 8.816C32.0759 9.28267 32.4166 9.642 32.8459 9.894C33.2753 10.1367 33.7606 10.258 34.3019 10.258C34.8246 10.258 35.3006 10.132 35.7299 9.88C36.1686 9.628 36.5139 9.26867 36.7659 8.802C37.0179 8.33533 37.1439 7.794 37.1439 7.178ZM47.2772 6.786C47.2772 7.122 47.2679 7.37867 47.2492 7.556H40.9072C40.9352 8.13467 41.0752 8.62933 41.3272 9.04C41.5792 9.45067 41.9105 9.76333 42.3212 9.978C42.7319 10.1833 43.1799 10.286 43.6652 10.286C44.2999 10.286 44.8319 10.132 45.2612 9.824C45.6999 9.516 45.9892 9.10067 46.1292 8.578H47.1652C46.9785 9.32467 46.5772 9.936 45.9612 10.412C45.3545 10.8787 44.5892 11.112 43.6652 11.112C42.9465 11.112 42.3025 10.9533 41.7332 10.636C41.1639 10.3093 40.7159 9.852 40.3892 9.264C40.0719 8.66667 39.9132 7.97133 39.9132 7.178C39.9132 6.38467 40.0719 5.68933 40.3892 5.092C40.7065 4.49467 41.1499 4.03733 41.7192 3.72C42.2885 3.40267 42.9372 3.244 43.6652 3.244C44.3932 3.244 45.0279 3.40267 45.5692 3.72C46.1199 4.03733 46.5399 4.46667 46.8292 5.008C47.1279 5.54 47.2772 6.13267 47.2772 6.786ZM46.2832 6.758C46.2925 6.18867 46.1759 5.70333 45.9332 5.302C45.6999 4.90067 45.3779 4.59733 44.9672 4.392C44.5565 4.18667 44.1085 4.084 43.6232 4.084C42.8952 4.084 42.2745 4.31733 41.7612 4.784C41.2479 5.25067 40.9632 5.90867 40.9072 6.758H46.2832ZM50.3442 4.182V8.928C50.3442 9.39467 50.4329 9.71667 50.6102 9.894C50.7875 10.0713 51.1002 10.16 51.5482 10.16H52.4442V11H51.3942C50.7035 11 50.1902 10.8413 49.8542 10.524C49.5182 10.1973 49.3502 9.66533 49.3502 8.928V4.182H48.2862V3.356H49.3502V1.438H50.3442V3.356H52.4442V4.182H50.3442ZM53.6124 7.164C53.6124 6.38 53.7664 5.694 54.0744 5.106C54.3918 4.50867 54.8258 4.05133 55.3764 3.734C55.9364 3.40733 56.5664 3.244 57.2664 3.244C57.9944 3.244 58.6198 3.412 59.1424 3.748C59.6744 4.084 60.0571 4.51333 60.2904 5.036V3.356H61.2704V11H60.2904V9.306C60.0478 9.82867 59.6604 10.2627 59.1284 10.608C58.6058 10.944 57.9804 11.112 57.2524 11.112C56.5618 11.112 55.9364 10.9487 55.3764 10.622C54.8258 10.2953 54.3918 9.83333 54.0744 9.236C53.7664 8.63867 53.6124 7.948 53.6124 7.164ZM60.2904 7.178C60.2904 6.562 60.1644 6.02067 59.9124 5.554C59.6604 5.08733 59.3151 4.728 58.8764 4.476C58.4471 4.224 57.9711 4.098 57.4484 4.098C56.9071 4.098 56.4218 4.21933 55.9924 4.462C55.5631 4.70467 55.2224 5.05933 54.9704 5.526C54.7278 5.98333 54.6064 6.52933 54.6064 7.164C54.6064 7.78933 54.7278 8.34 54.9704 8.816C55.2224 9.28267 55.5631 9.642 55.9924 9.894C56.4218 10.1367 56.9071 10.258 57.4484 10.258C57.9711 10.258 58.4471 10.132 58.8764 9.88C59.3151 9.628 59.6604 9.26867 59.9124 8.802C60.1644 8.33533 60.2904 7.794 60.2904 7.178ZM63.9977 1.914C63.8017 1.914 63.6337 1.844 63.4937 1.704C63.3537 1.564 63.2837 1.39133 63.2837 1.186C63.2837 0.980666 63.3537 0.812666 63.4937 0.681999C63.6337 0.541999 63.8017 0.472 63.9977 0.472C64.1937 0.472 64.3617 0.541999 64.5017 0.681999C64.6417 0.812666 64.7117 0.980666 64.7117 1.186C64.7117 1.39133 64.6417 1.564 64.5017 1.704C64.3617 1.844 64.1937 1.914 63.9977 1.914ZM64.4877 3.356V11H63.5077V3.356H64.4877ZM67.6869 0.64V11H66.7069V0.64H67.6869ZM70.3961 1.914C70.2001 1.914 70.0321 1.844 69.8921 1.704C69.7521 1.564 69.6821 1.39133 69.6821 1.186C69.6821 0.980666 69.7521 0.812666 69.8921 0.681999C70.0321 0.541999 70.2001 0.472 70.3961 0.472C70.5921 0.472 70.7601 0.541999 70.9001 0.681999C71.0401 0.812666 71.1101 0.980666 71.1101 1.186C71.1101 1.39133 71.0401 1.564 70.9001 1.704C70.7601 1.844 70.5921 1.914 70.3961 1.914ZM70.8861 3.356V11H69.9061V3.356H70.8861ZM76.6894 3.216C77.604 3.216 78.3507 3.50067 78.9294 4.07C79.508 4.63 79.7974 5.44667 79.7974 6.52V11H78.8314V6.632C78.8314 5.80133 78.6214 5.16667 78.2014 4.728C77.7907 4.28933 77.226 4.07 76.5074 4.07C75.77 4.07 75.182 4.30333 74.7434 4.77C74.3047 5.23667 74.0854 5.92267 74.0854 6.828V11H73.1054V3.356H74.0854V4.658C74.328 4.19133 74.678 3.83667 75.1354 3.594C75.5927 3.342 76.1107 3.216 76.6894 3.216ZM85.1707 3.244C85.8894 3.244 86.5147 3.412 87.0467 3.748C87.5787 4.084 87.9614 4.50867 88.1947 5.022V3.356H89.1747V11.196C89.1747 11.896 89.0207 12.5167 88.7127 13.058C88.4141 13.5993 87.9941 14.0147 87.4527 14.304C86.9114 14.6027 86.2954 14.752 85.6047 14.752C84.6247 14.752 83.8081 14.5187 83.1547 14.052C82.5107 13.5853 82.1094 12.9507 81.9507 12.148H82.9167C83.0847 12.68 83.4021 13.1047 83.8687 13.422C84.3447 13.7393 84.9234 13.898 85.6047 13.898C86.0994 13.898 86.5427 13.7907 86.9347 13.576C87.3267 13.3707 87.6347 13.0627 87.8587 12.652C88.0827 12.2413 88.1947 11.756 88.1947 11.196V9.306C87.9521 9.82867 87.5647 10.2627 87.0327 10.608C86.5101 10.944 85.8894 11.112 85.1707 11.112C84.4707 11.112 83.8407 10.9487 83.2807 10.622C82.7301 10.2953 82.2961 9.83333 81.9787 9.236C81.6707 8.63867 81.5167 7.948 81.5167 7.164C81.5167 6.38 81.6707 5.694 81.9787 5.106C82.2961 4.50867 82.7301 4.05133 83.2807 3.734C83.8407 3.40733 84.4707 3.244 85.1707 3.244ZM88.1947 7.178C88.1947 6.562 88.0687 6.02067 87.8167 5.554C87.5647 5.08733 87.2194 4.728 86.7807 4.476C86.3514 4.224 85.8754 4.098 85.3527 4.098C84.8114 4.098 84.3261 4.21933 83.8967 4.462C83.4674 4.70467 83.1267 5.05933 82.8747 5.526C82.6321 5.98333 82.5107 6.52933 82.5107 7.164C82.5107 7.78933 82.6321 8.34 82.8747 8.816C83.1267 9.28267 83.4674 9.642 83.8967 9.894C84.3261 10.1367 84.8114 10.258 85.3527 10.258C85.8754 10.258 86.3514 10.132 86.7807 9.88C87.2194 9.628 87.5647 9.26867 87.8167 8.802C88.0687 8.33533 88.1947 7.794 88.1947 7.178Z" fill="white"/>
<path d="M92.126 11.098C91.7713 11.098 91.4773 10.9907 91.244 10.776C91.02 10.552 90.908 10.2767 90.908 9.95C90.908 9.62333 91.02 9.35267 91.244 9.138C91.4773 8.914 91.7713 8.802 92.126 8.802C92.4713 8.802 92.756 8.914 92.98 9.138C93.204 9.35267 93.316 9.62333 93.316 9.95C93.316 10.2767 93.204 10.552 92.98 10.776C92.756 10.9907 92.4713 11.098 92.126 11.098Z" fill="#F13024"/>
</svg>
